<svg width="60" height="56" viewBox="0 0 60 56" fill="none" xmlns="http://www.w3.org/2000/svg">
<g clip-path="url(#clip0_0_515)">
<path d="M16.0494 10.6815C15.1005 10.1592 13.9981 9.56944 13.1219 9.07381C12.7178 8.85817 12.2221 8.76124 11.741 8.80382C11.2601 8.84641 10.8325 9.02513 10.5499 9.30155L2.33806 17.3682C2.195 17.5084 2.09356 17.6694 2.03972 17.8418C1.98588 18.0144 1.98068 18.195 2.02449 18.373C2.06831 18.5511 2.16022 18.7231 2.29482 18.879C2.42952 19.035 2.60418 19.1717 2.80871 19.2813C3.58828 19.7009 4.60116 20.2423 5.685 20.8304C13.2975 24.9767 12.0252 28.3659 7.3243 34.2663L0.860132 42.4116C0.738876 42.5642 0.662682 42.7348 0.636011 42.9131C0.609335 43.0915 0.632681 43.2739 0.704841 43.4497C0.776908 43.6255 0.896216 43.7911 1.05575 43.9367C1.21528 44.0822 1.41173 44.2047 1.63344 44.297L14.3062 49.5888C14.7413 49.7689 15.2471 49.8219 15.7144 49.7364C16.1817 49.6509 16.5732 49.4337 16.8044 49.1316C18.1559 47.4117 20.8477 43.9913 23.3216 40.9167C32.2735 29.8603 32.6351 19.8296 16.0494 10.6815Z" fill="url(#paint0_linear_0_515)"/>
<path d="M37.0168 47.6365C38.0346 48.1679 39.2171 48.7681 40.157 49.2722C40.5905 49.4916 41.1214 49.592 41.6356 49.5517C42.1498 49.5115 42.6063 49.3338 42.907 49.0569L45.037 40.1598C45.2032 40.0195 45.3228 39.8553 45.3884 39.6774C45.454 39.4995 45.4641 39.3118 45.4182 39.1259C45.3723 38.9399 45.2714 38.7598 45.1216 38.5967C44.9718 38.4336 44.7765 38.291 44.5477 38.1777C43.7115 37.7507 42.6251 37.1998 41.4625 36.6013C33.2968 32.3826 34.6392 28.9752 39.6352 23.0568L46.4728 14.9111C46.6017 14.7579 46.6823 14.5866 46.7099 14.407C46.7374 14.2275 46.7114 14.0436 46.6333 13.866C46.5552 13.6885 46.4266 13.521 46.2552 13.3736C46.0838 13.2261 45.873 13.1015 45.6353 13.0074L38.6603 8.42249C38.1938 8.23864 37.6526 8.18247 37.1532 8.26606C36.6538 8.34964 36.2362 8.56631 35.9905 8.86938C34.5543 10.5946 31.6937 14.0256 29.0643 17.1094C19.5569 28.2265 19.2452 38.3313 37.0168 47.6365Z" fill="url(#paint1_linear_0_515)"/>
</g>
<defs>
<linearGradient id="paint0_linear_0_515" x1="-4.19362" y1="47.7338" x2="10.8244" y2="18.8636" gradientUnits="userSpaceOnUse">
<stop offset="0.18" stop-color="#0052CC"/>
<stop offset="1" stop-color="#2684FF"/>
</linearGradient>
<linearGradient id="paint1_linear_0_515" x1="-45968.5" y1="-15304.5" x2="-47117.1" y2="-14067.3" gradientUnits="userSpaceOnUse">
<stop offset="0.18" stop-color="#0052CC"/>
<stop offset="1" stop-color="#2684FF"/>
</linearGradient>
<clipPath id="clip0_0_515">
<rect width="50" height="54.7971" fill="white" transform="translate(59.0295 5.62256) rotate(95)"/>
</clipPath>
</defs>
</svg>
